
 <svg xmlns="http://www.w3.org/2000/svg" x="0px" y="0px" width="48" height="48" viewBox="0 0 48 48" fill="#000">
  <symbol id="delete">
   <path d="M19 4h-3.5l-1-1h-5l-1 1H5v2h14M6 19a2 2 0 002 2h8a2 2 0 002-2V7H6v12z" />
  </symbol>

  <symbol id="edit">
   <path d="M7 17.013l4.413-.015 9.632-9.54c.378-.378.586-.88.586-1.414s-.208-1.036-.586-1.414l-1.586-1.586c-.756-.756-2.075-.752-2.825-.003L7 12.583v4.43zM18.045 4.458l1.589 1.583-1.597 1.582-1.586-1.585 1.594-1.58zM9 13.417l6.03-5.973 1.586 1.586-6.029 5.971L9 15.006v-1.589z" />
      <path d="M5 21h14c1.103 0 2-.897 2-2v-8.668l-2 2V19H8.158c-.026 0-.053.01-.079.01-.033 0-.066-.009-.1-.01H5V5h6.847l2-2H5c-1.103 0-2 .897-2 2v14c0 1.103.897 2 2 2z" />
  </symbol>

  <symbol id="add">
     <path fill="none" d="M0 0h24v24H0z" />
      <path fill="#fff" d="M11 11V5h2v6h6v2h-6v6h-2v-6H5v-2z" />
  </symbol>

  <symbol id='save'>
   <path fill="none" d="M4.89163 13.2687L9.16582 17.5427L18.7085 8" stroke="#000000" stroke-width="2.5" stroke-linecap="round" stroke-linejoin="round"/>
 </symbol>
</svg>
